<?xml version="1.0" encoding="utf-8"?>
<!-- Generator: Adobe Illustrator 24.0.2, SVG Export Plug-In . SVG Version: 6.00 Build 0)  -->
<svg version="1.1" id="Layer_1" xmlns="http://www.w3.org/2000/svg" xmlns:xlink="http://www.w3.org/1999/xlink" x="0px" y="0px"
	 viewBox="0 0 512 512" style="enable-background:new 0 0 512 512;" xml:space="preserve">
<style type="text/css">
	.st0{fill:#C1E8F7;}
	.st1{fill:#906A5D;}
	.st2{fill:#F4CCAF;}
	.st3{fill:#FCD4B5;}
	.st4{fill:#1C2121;}
	.st5{fill:#F3F3F3;}
</style>
<circle id="XMLID_8228_" class="st0" cx="256.0887" cy="255.7101" r="245.858"/>
<g id="XMLID_7688_">
	<path id="XMLID_7709_" class="st1" d="M320.7599,230.8844c-3.6425-2.602-3.5124,34.2184-18.606,48.7907
		c-1.0826,1.046-2.1885,2.0682-3.3204,3.0627c-1.0281,0.903-2.1242,1.7271-3.1954,2.5812
		c0.732,9.2323,3.451,20.9276,12.5801,30.7693c15.7426-4.2637,28.5709-9.082,25.9057-13.0203
		c-5.7349-8.4733-3.9218-44.3296-3.8729-75.8458C327.8087,231.2781,324.6097,233.4703,320.7599,230.8844z"/>
	<path id="XMLID_7708_" class="st1" d="M219.3842,279.6751c-15.0936-14.5723-14.9635-51.3927-18.606-48.7907
		c-4.905,3.2945-8.7599-1.1418-11.3228-7.3541c-0.1071,32.3458,2.0887,70.7332-3.8703,79.5377
		c-2.7534,4.0677,11.0182,9.0769,27.4642,13.4407c9.4096-9.8845,12.2123-21.7257,12.9684-31.072
		C223.7203,283.616,221.4916,281.7101,219.3842,279.6751z"/>
	<path id="XMLID_7707_" d="M152.9425,478.8808c-1.9567-21.4979-1.9754-47.3144-3.6392-71.0879
		c-2.4152-34.5073-9.3259-63.6014-9.3259-65.8839c0-0.0793,0.0717-0.1703,0.1133-0.257c-1.4218-0.6694-3.2692-0.7345-5.8087,0.0304
		c-10.5737,3.1866-26.0735,36.5568-34.7899,74.4405c-1.7929,7.7958-3.6908,15.9228-5.5919,24.2784
		C111.5308,455.8967,131.3853,468.8998,152.9425,478.8808z"/>
	<path id="XMLID_7706_" d="M382.8835,341.9091c0,2.2825-6.9121,31.3766-9.3259,65.8839
		c-1.5246,21.7784-1.669,45.2707-3.1848,65.5895c20.1906-10.6219,38.7044-23.9724,55.089-39.5588
		c-1.3926-6.0438-2.7716-11.9651-4.0908-17.7007c-8.716-37.8836-24.2151-71.2538-34.7895-74.4405
		c-1.6719-0.5034-3.0298-0.6299-4.1855-0.4892C382.6842,341.4521,382.8835,341.6967,382.8835,341.9091z"/>
	<path id="XMLID_7705_" class="st2" d="M206.6228,322.2703c1.2745-0.2917,1.8701-0.4237,1.5012-0.3371
		c-0.9381,0.2187-1.7216,0.6014-2.4338,1.0595c-1.0533,0.955-2.353,2.7018-2.9563,5.8749
		c-0.393,2.0646-3.5124,8.4663,9.4041,24.7737c9.6436,12.175,36.5331,54.2214,45.6918,78.9049l3.6016,0.0197l2.2752-0.0125
		c9.1555-24.6827,36.049-66.7353,45.6937-78.9122c12.9164-16.3074,9.7971-22.7092,9.4041-24.7737
		c-1.0942-5.751-4.5064-6.9151-4.5064-6.9151s0.1444-0.0366,0.3561-0.0713c-2.4583-1.8225-4.562-3.773-6.4358-5.793
		c-9.1292-9.8417-11.8481-21.537-12.5801-30.7693c-2.5859,2.0583-5.2519,4.0151-8.1047,5.6859
		c-3.4418,2.0145-7.0836,3.6871-10.8815,4.9075c-3.4517,1.1092-7.0185,1.8386-10.6245,2.2028
		c-4.4801,0.4533-9.0794,0.3159-13.5281-0.3901c-3.6535-0.5791-7.239-1.5549-10.6808-2.9069
		c-3.863-1.5176-7.5333-3.4981-10.9842-5.7992c-1.6664-1.1115-3.248-2.3388-4.8165-3.5822
		c-0.7561,9.3463-3.5588,21.1875-12.9684,31.072c-1.7852,1.8755-3.7668,3.6882-6.0625,5.3886
		c0.151,0.0293,0.2534,0.0552,0.2534,0.0552S206.9942,322.0447,206.6228,322.2703z"/>
	<path id="XMLID_7704_" class="st3" d="M200.7782,230.8844c3.6425-2.602,3.5124,34.2184,18.606,48.7907
		c2.1073,2.0349,4.3361,3.9409,6.6335,5.7616c1.5685,1.2434,3.1501,2.4707,4.8165,3.5822
		c3.4509,2.3011,7.1213,4.2816,10.9842,5.7992c3.4418,1.352,7.0273,2.3278,10.6808,2.9069c4.4487,0.706,9.048,0.8434,13.5281,0.3901
		c3.606-0.3641,7.1728-1.0935,10.6245-2.2028c3.7979-1.2204,7.4397-2.893,10.8815-4.9075c2.8528-1.6708,5.5188-3.6275,8.1047-5.6859
		c1.0712-0.8541,2.1673-1.6781,3.1954-2.5812c1.1319-0.9944,2.2379-2.0167,3.3204-3.0627
		c15.0937-14.5723,14.9635-51.3927,18.606-48.7907c3.8498,2.5859,7.0489,0.3938,9.4911-3.6623
		c2.84-4.7192,4.652-11.9681,5.2117-17.2858c0.7846-7.4587-1.5896-11.6485-4.5905-11.4753c-1.405,7.3549-4.0432,5.0947-6.049,6.3714
		c-2.8645,1.8225-6.4365-22.7128-20.237-34.1702c-13.8001-11.4566-14.916-19.2085-14.916-19.2085
		c-13.7994,1.5619-27.3063,6.5586-50.0582,24.6611c-18.0134,14.3324-34.0766,28.6247-41.3368,30.5401
		c-2.0064,0.5294-2.0752-7.1549-8.9511-5.7323c-0.2559,0.0526-0.5202-0.563-0.7542-1.6949
		c-1.8807,1.4738-3.0802,5.1422-2.4945,10.7086c0.4274,4.0648,1.5915,9.2586,3.38,13.5939
		C192.0183,229.7426,195.8733,234.1788,200.7782,230.8844z"/>
	<path id="XMLID_7703_" class="st4" d="M328.8149,328.9433c0.215-1.4299,0.4398-2.6133,0.6738-3.5508
		c-3.64-0.8782-6.8354-1.6324-9.3277-2.2134c0.9356,0.4749,1.9443,1.0683,3.0788,1.9242
		C324.4543,326.021,326.52,327.2886,328.8149,328.9433z"/>
	<path id="XMLID_7702_" class="st4" d="M198.2983,325.1033c0.7089-0.5352,1.3802-0.9853,2.0119-1.3644
		c-2.0057,0.472-4.297,1.0164-6.8193,1.6251c0.1839,0.7319,0.3623,1.613,0.5345,2.6539
		C195.7786,326.8118,197.3203,325.8426,198.2983,325.1033z"/>
	<path id="XMLID_7701_" class="st4" d="M349.5345,358.0579c1.0266,0.6804-0.1945,1.3275-2.7018,1.922
		c-1.5834,32.5553-2.3779,72.0969-2.3779,72.0969l-20.2209,0.1028c0,0,0.2545-17.7154,0.8775-38.8715
		c-9.8194,8.5921-23.0083,19.5935-33.5863,26.4555c-3.1563,2.0485-8.6294,6.6185-14.6187,12.7168l68.7045-0.3813
		c1.1791,1.5728,1.0833,23.9332,0.4811,52.3941c8.3241-3.2773,16.4296-6.9798,24.2809-11.1107
		c1.5158-20.3189,1.6602-43.8112,3.1848-65.5895c2.4137-34.5073,9.3259-63.6014,9.3259-65.8839c0-0.2124-0.1992-0.457-0.4874-0.7159
		c-2.7724-2.485-18.1545-6.956-33.5962-10.9733c-0.6563,6.7004-1.2379,15.5891-1.7461,25.3503
		C347.7591,356.5486,348.5367,357.3965,349.5345,358.0579z"/>
	<path id="XMLID_7700_" class="st4" d="M149.3032,407.7929c1.6639,23.7735,1.6825,49.5899,3.6392,71.0879
		c7.7344,3.58,15.687,6.7597,23.8312,9.5346c-0.6804-30.6604-0.7703-54.6488,0.48-56.3163l67.6808,0.3758
		c-6.5827-6.8141-12.738-11.9838-16.0219-14.1145c-9.8669-6.4017-21.7268-16.0442-31.007-23.9786
		c0.6,20.6743,0.8471,37.7977,0.8471,37.7977l-20.2209-0.1028c0,0-0.7897-39.2901-2.3625-71.7854
		c-3.4604-0.6775-5.3751-1.4317-4.1657-2.2335c1.6639-1.103,2.7706-2.6546,3.8158-4.6538
		c-0.4811-8.9277-1.0273-17.0083-1.6361-23.2163c-16.4888,4.2871-32.952,9.0999-34.0927,11.4643
		c-0.0417,0.0867-0.1133,0.1777-0.1133,0.257C139.9774,344.1916,146.888,373.2857,149.3032,407.7929z"/>
	<path id="XMLID_7699_" class="st4" d="M206.6228,322.2703c-0.2581,0.1572-0.582,0.4044-0.9327,0.7224
		c0.7122-0.4581,1.4957-0.8409,2.4338-1.0595C208.4928,321.8465,207.8973,321.9785,206.6228,322.2703z"/>
	<path id="XMLID_7698_" class="st4" d="M326.2538,362.5709c-6.937,0.5846-12.7022,0.9228-12.7022,0.9228l12.3033,8.2663
		C325.9789,368.6557,326.1131,365.5842,326.2538,362.5709z"/>
	<path id="XMLID_7697_" class="st4" d="M196.7383,362.6916c0.125,2.6678,0.2435,5.3784,0.3561,8.1216l10.8921-7.3194
		C207.9865,363.4937,203.0069,363.2012,196.7383,362.6916z"/>
	<path id="XMLID_7696_" class="st1" d="M189.3242,200.9227c6.8759-1.4226,6.9447,6.2617,8.9511,5.7323
		c7.2602-1.9154,23.3234-16.2076,41.3368-30.5401c22.752-18.1026,36.2589-23.0993,50.0582-24.6611c0,0,1.1158,7.7519,14.916,19.2085
		c13.8005,11.4573,17.3725,35.9927,20.237,34.1702c2.0057-1.2767,4.6439,0.9835,6.049-6.3714
		c0.6018-3.1501,0.9809-8.0316,0.9809-15.7612c0-25.7781-10.4691-52.3382-27.3418-56.7602
		c-8.1153-2.126-9.1599-10.0092-27.2043-15.4132c-28.828-8.6323-61.3719,3.3383-77.9901,31.0318
		c-12.4481,20.7437-12.2606,50.3548-10.747,57.6694C188.8039,200.3597,189.0683,200.9753,189.3242,200.9227z"/>
	<path id="XMLID_7695_" d="M318.8043,328.8676c0.393,2.0646,3.5124,8.4663-9.4041,24.7737
		c-9.6447,12.1768-36.5382,54.2295-45.6937,78.9122l13.1998-0.0731c5.9893-6.0983,11.4624-10.6683,14.6187-12.7168
		c10.578-6.862,23.7669-17.8635,33.5863-26.4555c0.2062-6.9809,0.4537-14.3295,0.7436-21.548l-12.3033-8.2663
		c0,0,5.7652-0.3382,12.7022-0.9228c0.6588-14.0217,1.5005-26.5886,2.5611-33.6276c-2.2949-1.6547-4.3606-2.9223-5.5751-3.84
		c-1.1345-0.8559-2.1432-1.4492-3.0788-1.9242c-2.8883-1.4694-4.7887-1.4185-5.5071-1.2979
		c-0.2117,0.0347-0.3561,0.0713-0.3561,0.0713S317.71,323.1166,318.8043,328.8676z"/>
	<path id="XMLID_7694_" d="M349.5345,358.0579c-0.9977-0.6614-1.7754-1.5092-2.4806-2.4876
		c-0.0757,1.4533-0.1488,2.9234-0.2212,4.4096C349.34,359.3854,350.5611,358.7383,349.5345,358.0579z"/>
	<path id="XMLID_7693_" d="M172.0036,358.0579c-1.2094,0.8018,0.7052,1.556,4.1657,2.2335
		c-0.1133-2.3344-0.2292-4.6399-0.3499-6.8873C174.7742,355.4032,173.6675,356.9548,172.0036,358.0579z"/>
	<path id="XMLID_7692_" d="M194.0255,328.0179c1.1319,6.8408,2.0236,19.9635,2.7128,34.6736
		c6.2687,0.5096,11.2482,0.8021,11.2482,0.8021l-10.8921,7.3194c0.3214,7.893,0.5908,15.9648,0.8113,23.5687
		c9.2802,7.9344,21.14,17.5768,31.007,23.9786c3.2839,2.1307,9.4392,7.3004,16.0219,14.1145l12.8953,0.0713
		c-9.1588-24.6835-36.0483-66.7299-45.6918-78.9049c-12.9165-16.3074-9.7971-22.7092-9.4041-24.7737
		c0.6032-3.1731,1.903-4.92,2.9563-5.8749c0.3506-0.3181,0.6745-0.5652,0.9327-0.7224c0.3715-0.2256,0.6175-0.3177,0.6175-0.3177
		s-0.1024-0.0259-0.2534-0.0552c-0.7096-0.1393-3.0287-0.3444-6.6767,1.8416c-0.6318,0.3792-1.303,0.8292-2.0119,1.3644
		C197.3203,325.8426,195.7786,326.8118,194.0255,328.0179z"/>
	<path id="XMLID_7691_" class="st5" d="M176.1693,360.2914c1.5728,32.4953,2.3625,71.7854,2.3625,71.7854l20.2209,0.1028
		c0,0-0.2471-17.1235-0.8471-37.7977c-0.2205-7.6039-0.4899-15.6757-0.8113-23.5687c-0.1126-2.7431-0.2311-5.4537-0.3561-8.1216
		c-0.6892-14.7101-1.5809-27.8328-2.7128-34.6736c-0.1722-1.0409-0.3506-1.922-0.5345-2.6539
		c-0.0384-0.1561-0.076-0.3532-0.1159-0.4943l-19.2729,4.4717c0.0274,0.2698,0.0545,0.5685,0.0812,0.8464
		c0.6087,6.208,1.155,14.2886,1.6361,23.2163C175.9401,355.6515,176.056,357.957,176.1693,360.2914z"/>
	<path id="XMLID_7690_" class="st5" d="M326.2538,362.5709c-0.1407,3.0133-0.2749,6.0848-0.3989,9.1891
		c-0.2899,7.2185-0.5374,14.5672-0.7436,21.548c-0.623,21.1561-0.8775,38.8715-0.8775,38.8715l20.2209-0.1028
		c0,0,0.7945-39.5416,2.3779-72.0969c0.0724-1.4862,0.1455-2.9563,0.2212-4.4096c0.5082-9.7613,1.0899-18.6499,1.7461-25.3503
		c0.0285-0.2885,0.0563-0.5992,0.0848-0.8785l-19.2729-4.4717c-0.0421,0.1499-0.0822,0.3568-0.1232,0.5228
		c-0.234,0.9374-0.4588,2.1208-0.6738,3.5508C327.7543,335.9823,326.9127,348.5492,326.2538,362.5709z"/>
	<path id="XMLID_7689_" class="st5" d="M345.6108,432.0991l-68.7045,0.3813l-13.1998,0.0731l-2.2752,0.0125l-3.6016-0.0197
		l-12.8953-0.0713l-67.6808-0.3758c-1.2504,1.6675-1.1604,25.6559-0.48,56.3163c24.8933,8.4831,51.5507,13.1523,79.3154,13.1523
		c31.7806,0,62.1207-6.0965,90.0028-17.0745C346.6941,456.0323,346.7899,433.6719,345.6108,432.0991z"/>
</g>
</svg>
